<svg width="87" height="87" viewBox="0 0 87 87" fill="none" xmlns="http://www.w3.org/2000/svg">
<g id="Arrow_09" clip-path="url(#clip0_40_96)">
<g id="Group">
<g id="Group_2">
<path id="Vector" fill-rule="evenodd" clip-rule="evenodd" d="M78.3899 48.5399C71.9003 51.4525 68.0536 51.4483 65.5149 49.8262C62.9744 48.2055 61.8245 45.0737 60.6764 41.9404C59.8945 39.7701 59.0965 37.5555 57.946 35.8354C56.7464 34.0398 55.129 32.7318 52.6847 32.3926C52.1078 32.3242 51.3514 32.4488 50.4973 32.8173C49.3054 33.2739 47.8435 34.1055 46.2334 35.2195C40.0599 39.3589 31.3157 47.1505 25.0058 50.6035C23.5693 51.4158 22.2491 51.9705 21.1384 52.1958C20.1603 52.3766 19.3567 52.3116 18.7999 51.8326C18.3471 51.4438 18.0776 50.8023 17.9372 49.8367C17.7094 48.2038 17.9869 45.8473 18.8079 42.512C19.5272 39.593 20.6723 36.7442 21.4616 33.8283C22.7023 29.2701 23.9016 24.5742 24.2533 20.0723C24.2686 19.7785 24.063 19.5402 23.7846 19.5265C23.4785 19.4775 23.245 19.7116 23.2297 20.0055C22.8847 24.4458 21.6975 29.0761 20.4716 33.5667C19.6501 36.4506 18.5266 39.3389 17.8024 42.2616C16.9242 45.7533 16.6731 48.2592 16.9214 49.9893C17.0716 51.2297 17.5068 52.0841 18.1291 52.626C18.7556 53.1648 19.6144 53.4134 20.6201 53.3245C21.9543 53.2111 23.63 52.5555 25.5101 51.5181C31.8401 48.0497 40.6175 40.2323 46.8119 36.0769C48.3506 35.0174 49.7528 34.2314 50.8729 33.7732C51.5329 33.4961 52.0938 33.351 52.5663 33.4426C54.6595 33.7106 56.0447 34.8564 57.0957 36.4265C58.1954 38.0725 58.9505 40.2068 59.7257 42.3257C60.9265 45.6447 62.2505 48.9828 64.9587 50.7015C67.6683 52.4191 71.8444 52.6242 78.8022 49.4678C79.0784 49.3703 79.1914 49.0585 79.0794 48.8051C78.9674 48.5517 78.6389 48.4066 78.3899 48.5399Z" fill="black" stroke="black"/>
<path id="Vector_2" fill-rule="evenodd" clip-rule="evenodd" d="M78.9735 49.9716C78.9431 50.0512 78.841 50.2421 78.7388 50.3764C78.2729 51.0701 77.4596 52.0282 77.2275 52.3179C75.2919 55.0347 72.9449 57.8392 70.2303 59.9076C70.0027 60.081 69.9547 60.4002 70.1184 60.6142C70.3093 60.8639 70.6302 60.9017 70.8578 60.7283C73.6509 58.6001 76.0533 55.697 78.0897 52.9598C78.2986 52.6313 79.1264 51.6618 79.6022 50.9606C79.7776 50.714 79.9131 50.4975 79.9783 50.335C80.022 50.1887 80.0351 50.0661 80.0231 49.9624C80.024 49.7359 79.9141 49.4806 79.7437 49.2717C79.5451 49.0278 79.2449 48.8051 78.8871 48.6261C78.1505 48.2277 77.1051 47.8953 76.2734 47.6258C75.8009 47.4778 75.389 47.3399 75.1936 47.2066C73.5142 46.0588 72.7779 43.9668 73.56 41.3386C73.6341 41.0563 73.4832 40.7759 73.2123 40.7C72.9415 40.6241 72.656 40.7853 72.5542 41.0322C71.6386 44.2137 72.5749 46.6617 74.6014 48.0531C75.1024 48.4052 76.6774 48.7855 77.8772 49.2826C78.2435 49.4551 78.5564 49.6122 78.7795 49.7809C78.8513 49.8391 78.8906 49.8656 78.9468 49.9357C78.9477 49.935 78.9761 49.9695 78.9735 49.9716Z" fill="black" stroke="black"/>
</g>
</g>
</g>
<defs>
<clipPath id="clip0_40_96">
<rect width="61.5682" height="61.5682" fill="white" transform="translate(37.3148 86.2867) rotate(-127.306)"/>
</clipPath>
</defs>
</svg>
