<svg width="180" height="170" viewBox="0 0 180 170" fill="none" xmlns="http://www.w3.org/2000/svg">
<g id="Group">
<path id="Vector" fill-rule="evenodd" clip-rule="evenodd" d="M86.157 107.085C85.7792 111.072 83.9903 114.777 80.3479 117.843C69.0803 127.329 56.7883 125.997 45.5584 119.419C29.161 109.814 15.0812 88.8697 10.1978 75.2974C9.96581 74.6548 10.3006 73.9414 10.9411 73.7046C11.5833 73.4651 12.292 73.7916 12.5241 74.4342C17.2629 87.6077 30.9072 107.951 46.8204 117.274C57.132 123.313 68.4234 124.661 78.7714 115.947C81.853 113.355 83.3521 110.224 83.6803 106.854C81.4923 106.627 79.3401 106.34 77.2281 105.994C71.3983 105.036 56.953 99.7742 48.5815 92.538C42.5776 87.3456 39.6981 81.1471 44.1842 74.8055C46.6784 71.2812 50.625 70.1637 55.2048 70.9279C61.5018 71.9748 69.0747 76.6821 75.1451 82.9657C80.2002 88.1965 84.21 94.5043 85.6477 100.612C85.9609 101.955 86.1575 103.288 86.2149 104.6C116.626 107.17 152.632 98.2496 177.042 80.6891C177.599 80.291 178.37 80.4132 178.763 80.9709C179.158 81.526 179.025 82.3019 178.47 82.7017C153.66 100.547 117.099 109.644 86.157 107.085ZM83.7166 104.362C81.6608 104.143 79.6375 103.871 77.6507 103.545C72.0645 102.625 58.2265 97.584 50.2059 90.6504C45.2831 86.396 42.5171 81.4257 46.1935 76.228C48.1259 73.4995 51.2302 72.7863 54.777 73.3738C58.6778 74.0242 63.0818 76.2201 67.2638 79.3293C73.613 84.0499 79.4431 90.8831 82.1693 97.8141C83.034 100.009 83.5813 102.216 83.7166 104.362Z" fill="black"/>
<path id="Vector_2" fill-rule="evenodd" clip-rule="evenodd" d="M131.164 76.7898C144.595 82.7531 162.731 83.3673 177.338 80.7273C178.01 80.6059 178.648 81.055 178.762 81.7283C178.876 82.4017 178.425 83.0486 177.753 83.1701C162.69 85.8942 143.993 85.2075 130.147 79.0608C129.527 78.7861 129.25 78.0534 129.532 77.4254C129.811 76.8 130.544 76.5151 131.164 76.7898Z" fill="black"/>
<path id="Vector_3" fill-rule="evenodd" clip-rule="evenodd" d="M177.88 83.4478C166.871 89.003 157.02 102.229 152.902 113.918C152.674 114.566 151.967 114.914 151.326 114.689C150.682 114.466 150.346 113.762 150.574 113.113C154.888 100.868 165.254 87.0537 176.789 81.2335C177.4 80.9238 178.143 81.171 178.445 81.7811C178.745 82.3939 178.493 83.1399 177.88 83.4478Z" fill="black"/>
</g>
</svg>
