<svg width="148" height="34" viewBox="0 0 148 34" fill="none" xmlns="http://www.w3.org/2000/svg">
<g id="Underline_04">
<g id="Group">
<path id="Vector" fill-rule="evenodd" clip-rule="evenodd" d="M54.8996 13.8526C53.9945 14.0865 53.0946 14.3337 52.1998 14.5952C51.8741 14.6903 51.6716 15.0633 51.7465 15.4278L51.7505 15.4422C46.9181 15.6205 42.0863 15.8508 37.2561 16.1345C30.2786 16.5445 23.2548 17.1421 16.2961 18.002C9.41936 18.8517 7.51965 19.0725 1.59665 20.3967C1.42727 20.4345 1.10127 20.438 0.925264 20.4964C0.75789 20.5519 0.63748 20.6456 0.559815 20.7366C0.460346 20.852 0.402413 20.9839 0.376902 21.1275C0.34986 21.2841 0.355294 21.4748 0.471661 21.6858C0.799981 22.2781 1.33962 22.4329 2.00139 22.2953C2.5708 22.1768 3.26198 21.78 3.80071 21.7266C12.769 20.8397 21.7322 19.8733 30.7012 19.001C44.4319 17.6657 58.1146 16.9105 71.7971 16.3631C86.1767 16.2548 100.544 16.5913 114.882 17.3387C124.221 17.825 133.536 18.6264 142.86 19.307C142.852 19.3535 142.85 19.4019 142.852 19.4512C142.868 19.8268 143.153 20.1083 143.486 20.0796C143.824 20.0505 146.838 19.9011 147.395 19.7369C147.714 19.6428 147.841 19.419 147.883 19.3234C147.998 19.0612 148.008 18.7784 147.761 18.513C147.712 18.4621 147.621 18.3782 147.453 18.3265C147.309 18.2812 146.951 18.2269 146.301 18.1825C135.858 17.4598 125.429 16.5204 114.972 15.9747C110.304 15.7321 105.632 15.5318 100.956 15.3778C107.307 15.1737 113.661 14.957 120.025 14.6911C120.299 14.6805 120.433 14.628 120.457 14.6157C120.808 14.4394 120.836 14.1276 120.832 13.9512C120.83 13.8882 120.789 13.3692 120.277 13.3051C119.978 13.2675 117.812 13.2219 116.978 13.1867C112.975 13.013 113.068 13.0497 108.971 12.9111C99.9634 12.6075 90.9667 12.4582 81.9457 12.3682C78.3489 12.3325 74.752 12.316 71.154 12.3208C81.5362 11.1431 92.1213 10.9984 102.211 10.6991C107.416 10.5448 112.621 10.4271 117.824 10.4117C120.155 10.4049 122.484 10.4422 124.814 10.4486C125.538 10.4505 126.26 10.4715 126.983 10.4783C127.068 10.479 128.19 10.4698 128.375 10.462C128.857 10.4417 128.973 9.95545 128.978 9.93598C128.999 9.84447 129.086 9.19139 128.489 9.10133C119.852 7.79986 110.777 8.29913 102.039 8.21555C86.747 8.06921 71.4082 8.42694 56.1057 9.23089C49.3374 9.58641 42.5878 10.199 35.8261 10.8094C32.449 11.1142 29.0629 11.434 25.714 12.0925C25.378 12.1586 24.6175 12.2339 24.2481 12.3118C24.0601 12.3516 23.9259 12.4115 23.8643 12.4519C23.5944 12.6271 23.5382 12.8789 23.5319 13.0548C23.5278 13.1867 23.5474 13.6503 24.0979 13.7825C31.9645 15.6729 40.734 14.2134 48.7463 13.9963C50.7974 13.9407 52.8477 13.893 54.8996 13.8526ZM61.5799 13.7477C59.1989 14.199 56.8406 14.7266 54.5145 15.3461C60.2831 15.157 66.0513 15.0418 71.8209 14.9985C81.3426 14.6176 90.863 14.337 100.395 14.0315C94.2357 13.8838 88.0736 13.7945 81.901 13.733C75.1305 13.6654 68.3559 13.6671 61.5799 13.7477ZM94.6043 9.54867C81.7849 9.56085 68.9439 9.92074 56.1291 10.594C49.3728 10.949 42.6375 11.5606 35.8888 12.1698C33.2333 12.4095 30.5705 12.6575 27.9265 13.0767C34.7364 13.9048 42.0148 12.8144 48.7515 12.632C53.006 12.5167 57.2624 12.4347 61.517 12.3839C72.3565 10.3429 83.6613 9.86525 94.6043 9.54867Z" fill="black"/>
</g>
</g>
</svg>
