<svg width="151" height="151" viewBox="0 0 151 151" fill="none" xmlns="http://www.w3.org/2000/svg">
<g id="Arrow_07" clip-path="url(#clip0_40_38)">
<g id="Group">
<path id="Vector" fill-rule="evenodd" clip-rule="evenodd" d="M104.813 54.2765C103.871 53.9864 103.061 53.7318 102.633 53.5949C100.033 52.7561 93.3236 51.4561 88.9712 48.9661C85.65 47.0675 83.6872 44.4725 84.9618 41.0854C86.1204 38.0069 89.5463 36.446 94.0485 36.0695C103.738 35.2594 118.464 39.7056 122.566 42.1976C123.014 42.4699 123.156 43.0516 122.884 43.4992C122.613 43.9449 122.031 44.0876 121.584 43.8153C117.647 41.4249 103.508 37.1787 94.2058 37.9562C90.5699 38.2606 87.6695 39.2665 86.7341 41.7536C85.8098 44.2076 87.503 45.9456 89.9106 47.3219C94.1459 49.7462 100.683 50.977 103.215 51.7923C104.802 52.3043 110.909 54.0861 111.395 54.3648C112.005 54.7135 111.916 55.2577 111.873 55.434C111.84 55.5708 111.632 56.2419 110.775 56.1609C98.5536 55.0147 79.007 61.7145 64.9631 73.5012C51.0425 85.1841 42.5256 101.929 52.2929 121.109C52.5292 121.575 52.3434 122.146 51.8791 122.384C51.4128 122.62 50.8421 122.434 50.6057 121.968C40.3721 101.872 49.1611 84.2905 63.7444 72.0511C76.0348 61.7354 92.4396 55.2619 104.813 54.2765Z" fill="black"/>
<path id="Vector_2" fill-rule="evenodd" clip-rule="evenodd" d="M51.0772 120.474C51.5487 118.291 51.9487 116.103 52.59 113.956C54.2977 108.236 57.2837 102.654 61.4869 98.3843C61.8556 98.0115 62.4548 98.0081 62.827 98.3735C63.1998 98.7422 63.2031 99.3413 62.8377 99.7135C58.8462 103.763 56.0254 109.07 54.4057 114.498C53.6728 116.956 53.2599 119.471 52.6868 121.966C52.6567 122.09 52.4409 123.182 52.332 123.4C52.0814 123.909 51.6526 123.96 51.4512 123.958C51.2829 123.958 51.0813 123.918 50.8684 123.781C50.6943 123.667 50.4146 123.374 50.124 122.902C49.1884 121.394 47.5109 117.564 47.169 116.965C43.251 110.091 38.4519 104.354 33.5505 98.1878C33.2266 97.7773 33.2941 97.1805 33.7026 96.8552C34.1111 96.53 34.7066 96.5995 35.0319 97.008C39.9959 103.252 44.8476 109.068 48.8122 116.026C49.0486 116.437 50.2321 118.788 51.0772 120.474Z" fill="black"/>
</g>
</g>
<defs>
<clipPath id="clip0_40_38">
<rect width="107.929" height="107.929" fill="white" transform="matrix(-0.565654 0.824643 0.824643 0.565654 61.0503 0)"/>
</clipPath>
</defs>
</svg>
