<svg width="204" height="98" viewBox="0 0 204 98" fill="none" xmlns="http://www.w3.org/2000/svg">
<g id="Highlight_07">
<path id="Vector" fill-rule="evenodd" clip-rule="evenodd" d="M148.125 13.6751C157.899 14.1669 165.613 17.0584 173.32 20.2841C198.594 30.8762 206.777 46.6246 188.968 61.5286C161.276 84.6396 97.6538 98.7594 48.7435 90.5127C37.9114 88.694 23.23 86.9776 12.617 79.0312C2.74437 71.6425 3.35068 63.1315 8.12262 55.3452C12.9826 47.3611 22.1751 40.1172 29.4698 35.4915C61.3619 15.3107 124.726 -2.27087 181.431 8.99001C182.597 9.2086 183.775 8.90304 184.123 8.30891C184.47 7.71479 183.899 7.05683 182.817 6.84009C124.446 -4.74935 59.0666 13.1953 26.2415 33.9641C17.1653 39.7326 5.24285 49.4333 1.67137 59.664C-0.741314 66.657 0.687456 73.8916 9.24259 80.3466C20.5132 88.8105 36.1096 90.7642 47.6081 92.7002C98.1014 101.217 163.907 86.6918 192.451 62.8216C211.623 46.8032 202.965 29.8636 175.785 18.4782C167.499 14.98 159.036 11.9281 148.426 11.3949C147.257 11.3366 146.243 11.8001 146.229 12.4309C146.132 13.0599 147.039 13.6186 148.125 13.6751Z" fill="black"/>
</g>
</svg>
