<svg width="33" height="33" viewBox="0 0 33 33" fill="none" xmlns="http://www.w3.org/2000/svg">
<g id="Highlight_05">
<path id="Vector" fill-rule="evenodd" clip-rule="evenodd" d="M19.9479 27.0831C17.9377 27.9455 16.0322 29.0964 14.1938 30.2252C13.7988 30.4695 13.6634 30.9846 13.9172 31.3532C14.1455 31.7428 14.6582 31.8551 15.0275 31.6313C16.8083 30.5359 18.6517 29.4135 20.5712 28.5959C20.9816 28.4233 21.1834 27.9382 21.0148 27.5178C20.8464 27.0977 20.3585 26.9108 19.9479 27.0831Z" fill="black"/>
<path id="Vector_2" fill-rule="evenodd" clip-rule="evenodd" d="M19.7267 16.6052C14.9348 16.0542 10.0855 16.1154 5.28738 15.4515C4.85037 15.3805 4.42853 15.6966 4.36402 16.1422C4.29971 16.588 4.59774 17.0116 5.06042 17.0619C9.86492 17.7338 14.7203 17.6802 19.5186 18.239C19.9763 18.2833 20.3899 17.9571 20.4489 17.5046C20.4824 17.073 20.1845 16.6494 19.7267 16.6052Z" fill="black"/>
<path id="Vector_3" fill-rule="evenodd" clip-rule="evenodd" d="M16.423 2.33944C17.729 3.80828 19.0349 5.27725 20.3412 6.74635C20.6227 7.09697 21.1484 7.12018 21.4941 6.81452C21.8397 6.5086 21.8567 6.00411 21.5749 5.65324C20.2668 4.18185 18.9591 2.71059 17.6512 1.23945C17.344 0.909456 16.8199 0.887941 16.4757 1.19564C16.1573 1.48273 16.116 2.00969 16.423 2.33944Z" fill="black"/>
</g>
</svg>
