<svg width="35" height="35" viewBox="0 0 35 35" fill="none" xmlns="http://www.w3.org/2000/svg">
<g id="Misc_01" clip-path="url(#clip0_40_60)">
<g id="Group">
<g id="Group_2">
<path id="Vector" fill-rule="evenodd" clip-rule="evenodd" d="M18.0854 8.95993C18.2023 8.56566 18.3323 8.18294 18.4787 7.80819C18.6982 7.24597 18.9925 6.71528 19.2409 6.16728C19.3462 5.93471 19.6112 5.32381 19.6644 5.24328C20.1312 4.54347 20.7918 4.72476 20.9786 4.79084C21.0701 4.82044 21.9964 5.15218 21.709 6.2189C21.3585 7.52356 20.846 8.75905 20.1888 9.89328C19.8919 10.9858 19.7334 12.1408 19.726 13.2533C19.6976 17.6783 22.8134 19.6348 26.3897 21.345C26.9413 21.6048 27.1856 22.2571 26.9478 22.8154C26.708 23.3778 26.0681 23.653 25.4989 23.4352C23.4147 22.6534 19.1025 22.5209 17.0684 23.5848C16.6427 23.8076 16.0835 24.5738 15.4844 25.3002C14.6513 26.3078 13.7722 27.2776 13.1744 27.5734C13.0835 27.6202 12.0482 28.0468 11.7953 28.06C11.1891 28.0879 10.8806 27.7491 10.7314 27.5036C10.5822 27.2581 10.4705 26.8635 10.5946 26.3612C10.7243 25.8362 11.2879 24.9047 11.3741 24.6882C11.6866 23.9026 12.2624 22.343 12.5785 20.915C12.7485 20.1459 12.8814 19.4247 12.7418 18.9657C12.225 17.2669 10.4016 16.5874 8.84282 16.0627C8.66461 16.0009 8.48439 15.9431 8.30659 15.8814C7.62419 15.7655 6.927 15.5865 6.21985 15.3367C5.15136 14.9608 5.43998 13.9505 5.46102 13.8847C5.50831 13.7404 5.77888 13.0105 6.67669 13.105C6.77379 13.1171 7.45294 13.2821 7.71511 13.3445C8.08019 13.4319 8.44093 13.5375 8.8009 13.6478C12.7752 14.2642 16.1231 12.1694 18.0854 8.95993ZM17.4482 13.2594C17.4322 16.5896 18.7713 18.8584 20.8253 20.5944L20.8249 20.5942C18.9877 20.6435 17.1885 20.9498 16.0126 21.5663C15.5666 21.7995 14.9625 22.4118 14.3385 23.126C14.5932 22.302 14.8298 21.4083 14.9564 20.6078C15.1015 19.6947 15.0962 18.8754 14.9227 18.3035C14.587 17.2006 13.9069 16.3452 13.056 15.6699C14.6917 15.2176 16.1739 14.3807 17.4482 13.2594Z" fill="black"/>
</g>
</g>
</g>
<defs>
<clipPath id="clip0_40_60">
<rect width="25.5156" height="25.5156" fill="white" transform="translate(11.2186) rotate(26.0834)"/>
</clipPath>
</defs>
</svg>
